<svg id="svg" version="1.1" xmlns="http://www.w3.org/2000/svg" class="icon-button"
    xmlns:xlink="http://www.w3.org/1999/xlink" width="400" height="416.946160635481"
    viewBox="0, 0, 400,416.946160635481">
    <g id="svgg">
        <path id="path0"
            d="M152.818 0.888 C 151.066 1.840,146.517 8.377,146.515 9.946 C 146.513 11.089,146.640 11.257,157.689 24.746 C 168.286 37.683,167.696 36.856,167.696 38.793 C 167.696 40.617,167.927 40.367,156.929 50.488 C 139.585 66.450,137.518 68.908,140.359 70.202 C 142.761 71.297,144.373 70.400,152.721 63.325 C 156.588 60.047,163.974 53.839,169.132 49.530 C 180.782 39.798,180.431 40.401,177.273 35.513 C 174.872 31.797,170.997 25.344,162.839 11.474 C 155.629 -0.785,155.720 -0.688,152.818 0.888 M110.470 62.871 C 95.967 64.389,85.197 72.265,80.133 85.057 C 70.888 108.410,74.931 130.334,90.667 142.184 C 112.133 158.348,155.872 151.231,169.057 129.428 C 177.450 115.551,173.881 88.984,162.337 79.405 C 149.831 69.027,131.717 74.940,126.550 91.086 C 124.536 97.380,121.903 99.365,120.234 95.849 C 118.210 91.584,119.486 88.284,126.033 80.847 C 130.663 75.588,133.183 70.752,132.022 69.353 C 128.557 65.178,118.199 62.063,110.470 62.871 M286.425 88.411 C 214.130 100.523,184.411 105.631,183.760 106.058 C 179.382 108.926,180.711 113.255,186.901 116.288 C 200.936 123.165,200.212 132.007,184.642 143.855 C 178.329 148.658,173.428 154.973,174.763 156.583 C 178.556 161.153,216.088 138.592,220.981 128.800 C 224.189 122.380,220.221 118.364,209.356 117.034 C 203.831 116.358,197.000 114.124,198.952 113.632 C 199.528 113.486,233.442 107.797,274.316 100.989 C 315.190 94.180,349.029 88.520,349.515 88.410 C 351.711 87.915,345.275 90.881,271.315 124.445 C 228.208 144.008,182.785 164.627,170.375 170.265 L 147.812 180.517 143.367 180.791 C 85.702 184.358,40.164 173.778,19.486 152.009 C 17.016 149.409,13.769 145.295,13.769 144.765 C 13.769 144.622,18.851 143.662,25.062 142.631 C 37.072 140.637,37.930 140.374,39.190 138.309 C 40.986 135.363,38.624 130.645,35.341 130.620 C 33.011 130.602,3.826 135.718,2.840 136.317 C 0.298 137.863,0.530 126.179,0.530 253.133 L 0.530 366.990 1.878 370.226 C 12.382 395.421,38.490 410.270,80.847 415.140 C 93.295 416.572,97.778 416.770,117.741 416.770 C 149.948 416.770,151.655 416.573,161.518 411.733 C 163.848 410.589,217.546 384.495,280.847 353.746 C 405.073 293.403,397.506 297.176,398.983 294.846 L 400.000 293.242 400.000 268.069 C 400.000 242.919,399.999 242.894,399.254 242.149 C 398.129 241.024,397.217 241.325,387.643 245.990 C 382.886 248.307,328.553 274.712,266.902 304.666 C 193.358 340.399,154.420 359.498,153.676 360.203 C 151.370 362.388,151.456 361.446,151.456 384.442 C 151.456 400.832,151.361 405.348,151.015 405.460 C 148.319 406.328,113.258 406.980,101.147 406.388 C 52.181 403.992,24.546 392.286,12.798 368.963 L 10.944 365.283 10.944 261.780 L 10.944 158.276 13.680 160.913 C 37.709 184.072,86.891 195.274,145.808 191.008 L 150.574 190.663 186.231 174.454 C 205.843 165.538,250.485 145.261,285.437 129.392 C 320.388 113.524,358.812 96.077,370.822 90.622 C 395.189 79.555,394.487 79.972,394.487 76.575 C 394.487 73.824,392.480 71.680,389.714 71.478 C 388.814 71.412,345.810 78.462,286.425 88.411 M67.608 88.220 C 59.210 91.263,42.840 103.999,39.874 109.797 C 35.824 117.714,43.317 133.512,58.769 149.635 C 65.788 156.959,67.668 156.368,64.799 147.736 C 63.911 145.067,62.468 139.953,61.592 136.373 C 60.716 132.793,59.362 127.613,58.584 124.861 C 55.789 114.979,56.696 112.025,66.648 98.606 C 74.646 87.823,74.851 85.596,67.608 88.220 M392.410 92.980 C 389.885 94.214,382.577 97.766,376.169 100.873 C 327.630 124.412,158.833 206.534,156.575 207.709 C 154.315 208.886,153.522 209.522,152.604 210.896 L 151.456 212.613 151.456 237.984 L 151.456 263.355 152.343 263.936 C 153.751 264.859,151.462 265.928,233.010 226.282 C 275.825 205.466,313.239 187.282,316.152 185.872 C 319.064 184.463,325.578 181.294,330.627 178.830 C 335.675 176.366,352.436 168.224,367.873 160.737 C 396.924 146.646,397.888 146.126,399.200 143.832 L 399.988 142.454 399.994 117.367 C 399.999 97.841,399.902 92.148,399.559 91.687 C 398.585 90.381,397.223 90.627,392.410 92.980 M79.772 140.355 C 76.695 144.062,88.524 165.943,97.710 173.538 C 105.224 179.751,110.657 179.710,123.359 173.347 C 134.313 167.858,142.095 161.026,140.112 158.637 C 139.192 157.529,135.986 158.146,119.329 162.634 C 107.018 165.951,101.998 163.780,91.440 150.574 C 84.365 141.724,81.047 138.818,79.772 140.355 M333.628 199.319 C 299.162 216.092,266.990 231.754,262.136 234.124 C 257.282 236.494,250.291 239.897,246.602 241.688 C 150.992 288.088,153.329 286.910,152.205 289.232 C 151.112 291.491,151.015 340.532,152.102 341.516 C 153.585 342.859,151.902 343.627,217.476 311.668 C 222.039 309.444,264.139 288.985,311.033 266.204 C 399.527 223.213,398.347 223.814,399.512 221.106 C 400.370 219.108,400.222 170.125,399.354 169.340 C 397.914 168.036,397.873 168.055,333.628 199.319 "
            stroke="none" fill-rule="evenodd"></path>
    </g>
</svg>